<svg width="140" height="95" viewBox="0 0 140 95" fill="none" xmlns="http://www.w3.org/2000/svg">
<path d="M5.14789 73.4248H105.533V80.8549H9.39789C7.05068 80.8549 5.14789 78.9521 5.14789 76.6049V73.4248Z" fill="#C9DFEF" stroke="#1D263A" stroke-width="1.5"/>
<rect x="0.750061" y="0.75" width="105.132" height="71.5769" rx="4.25" fill="#C9DFEF" stroke="#1D263A" stroke-width="1.5"/>
<path d="M105.567 28.5591C105.567 26.2195 107.501 24.3091 109.856 24.3091C115.525 24.3091 120.192 28.9058 120.192 34.5591V35.6752C120.192 38.0224 118.29 39.9252 115.942 39.9252H109.817C107.47 39.9252 105.567 38.0224 105.567 35.6752V28.5591Z" fill="#C9DFEF" stroke="#1D263A" stroke-width="1.5"/>
<path d="M105.567 39.7217C105.567 37.3745 107.47 35.4717 109.817 35.4717H128.883C130.787 35.4717 132.458 36.7378 132.974 38.5704L137.625 55.0975C137.731 55.4722 137.784 55.8596 137.784 56.2488V71.2841C137.784 73.668 135.824 75.5856 133.44 75.533L109.723 75.0096C107.413 74.9586 105.567 73.0713 105.567 70.7606V39.7217Z" fill="#C9DFEF" stroke="#1D263A" stroke-width="1.5"/>
<path d="M110.698 42.0144C110.698 40.4297 111.929 39.1924 113.391 39.1924H130.676C131.86 39.1924 132.928 40.009 133.264 41.2335L136.211 51.9497C136.717 53.7895 135.378 55.5526 133.622 55.5526H113.391C111.929 55.5526 110.698 54.3153 110.698 52.7306V42.0144Z" fill="#237FC0" stroke="#1D263A" stroke-width="1.5"/>
<rect x="103.368" y="71.1921" width="35.8822" height="9.66266" rx="1.25" fill="#C9DFEF" stroke="#1D263A" stroke-width="1.5"/>
<rect x="67.4517" y="71.1921" width="22.6885" height="11.8952" rx="1.25" fill="#237FC0" stroke="#1D263A" stroke-width="1.5"/>
<path d="M132.653 82.7211C132.653 89.0991 127.563 94.25 121.309 94.25C115.054 94.25 109.965 89.0991 109.965 82.7211C109.965 76.3431 115.054 71.1921 121.309 71.1921C127.563 71.1921 132.653 76.3431 132.653 82.7211Z" fill="#237FC0" stroke="#1D263A" stroke-width="1.5"/>
<path d="M128.988 82.7211C128.988 87.0441 125.539 90.5292 121.309 90.5292C117.078 90.5292 113.63 87.0441 113.63 82.7211C113.63 78.3981 117.078 74.9131 121.309 74.9131C125.539 74.9131 128.988 78.3981 128.988 82.7211Z" fill="#C9DFEF" stroke="#1D263A" stroke-width="1.5"/>
<path d="M60.0877 82.7211C60.0877 89.0991 54.9981 94.25 48.7435 94.25C42.4889 94.25 37.3992 89.0991 37.3992 82.7211C37.3992 76.3431 42.4889 71.1921 48.7435 71.1921C54.9981 71.1921 60.0877 76.3431 60.0877 82.7211Z" fill="#237FC0" stroke="#1D263A" stroke-width="1.5"/>
<path d="M56.4229 82.7211C56.4229 87.0441 52.974 90.5292 48.7435 90.5292C44.513 90.5292 41.0642 87.0441 41.0642 82.7211C41.0642 78.3981 44.513 74.9131 48.7435 74.9131C52.974 74.9131 56.4229 78.3981 56.4229 82.7211Z" fill="#C9DFEF" stroke="#1D263A" stroke-width="1.5"/>
<path d="M33.7003 82.7211C33.7003 89.0991 28.6107 94.25 22.3561 94.25C16.1015 94.25 11.0118 89.0991 11.0118 82.7211C11.0118 76.3431 16.1015 71.1921 22.3561 71.1921C28.6107 71.1921 33.7003 76.3431 33.7003 82.7211Z" fill="#237FC0" stroke="#1D263A" stroke-width="1.5"/>
<path d="M30.0355 82.7211C30.0355 87.0441 26.5866 90.5292 22.3561 90.5292C18.1256 90.5292 14.6768 87.0441 14.6768 82.7211C14.6768 78.3981 18.1256 74.9131 22.3561 74.9131C26.5866 74.9131 30.0355 78.3981 30.0355 82.7211Z" fill="#C9DFEF" stroke="#1D263A" stroke-width="1.5"/>
</svg>
