<svg width="140" height="95" viewBox="0 0 140 95" fill="none" xmlns="http://www.w3.org/2000/svg">
<rect x="0.75" y="48.1257" width="47.0148" height="46.1243" rx="2.25" fill="#C9DFEF" stroke="#1D263A" stroke-width="1.5"/>
<path d="M17.3835 48.375C17.3835 48.2369 17.4955 48.125 17.6335 48.125H30.881C31.0191 48.125 31.131 48.2369 31.131 48.375V71.1617C31.131 71.3707 30.8898 71.4875 30.7259 71.3578L25.3432 67.0986C24.7068 66.5951 23.8078 66.5951 23.1714 67.0986L17.7887 71.3578L18.2541 71.9459L17.7887 71.3578C17.6248 71.4875 17.3835 71.3707 17.3835 71.1617V48.375Z" fill="#237FC0" stroke="#1D263A" stroke-width="1.5"/>
<path d="M6.54443 88.8069C6.40636 88.8069 6.29443 88.695 6.29443 88.5569L6.29443 81.032C6.29443 80.894 6.40636 80.782 6.54443 80.782L25.3365 80.782C25.4745 80.782 25.5865 80.894 25.5865 81.032L25.5865 88.5569C25.5865 88.695 25.4745 88.8069 25.3365 88.8069L6.54443 88.8069Z" fill="#237FC0" stroke="#1D263A" stroke-width="1.5"/>
<path d="M31.8811 81.3933H41.5841" stroke="#1D263A" stroke-width="1.5" stroke-linecap="round"/>
<path d="M31.8811 86.8357H37.4241" stroke="#1D263A" stroke-width="1.5" stroke-linecap="round"/>
<rect x="46.4927" y="48.1257" width="47.0148" height="46.1243" rx="2.25" fill="#C9DFEF" stroke="#1D263A" stroke-width="1.5"/>
<path d="M63.1262 48.375C63.1262 48.2369 63.2381 48.125 63.3762 48.125H76.6237C76.7618 48.125 76.8737 48.2369 76.8737 48.375V71.1617C76.8737 71.3707 76.6325 71.4875 76.4686 71.3578L71.0859 67.0986C70.4495 66.5951 69.5504 66.5951 68.9141 67.0986L63.5313 71.3578L63.9967 71.9459L63.5313 71.3578C63.3674 71.4875 63.1262 71.3707 63.1262 71.1617V48.375Z" fill="#237FC0" stroke="#1D263A" stroke-width="1.5"/>
<path d="M52.2871 88.8069C52.149 88.8069 52.0371 88.695 52.0371 88.5569L52.0371 81.032C52.0371 80.894 52.149 80.782 52.2871 80.782L71.0791 80.782C71.2172 80.782 71.3291 80.894 71.3291 81.032L71.3291 88.5569C71.3291 88.695 71.2172 88.8069 71.0791 88.8069L52.2871 88.8069Z" fill="#237FC0" stroke="#1D263A" stroke-width="1.5"/>
<path d="M77.6238 81.3933H87.3267" stroke="#1D263A" stroke-width="1.5" stroke-linecap="round"/>
<path d="M77.6238 86.8357H83.1668" stroke="#1D263A" stroke-width="1.5" stroke-linecap="round"/>
<rect x="92.2352" y="48.1257" width="47.0148" height="46.1243" rx="2.25" fill="#C9DFEF" stroke="#1D263A" stroke-width="1.5"/>
<path d="M108.869 48.375C108.869 48.2369 108.981 48.125 109.119 48.125H122.367C122.505 48.125 122.617 48.2369 122.617 48.375V71.1617C122.617 71.3707 122.375 71.4875 122.211 71.3578L116.829 67.0986C116.192 66.5951 115.293 66.5951 114.657 67.0986L109.274 71.3578L109.74 71.9459L109.274 71.3578C109.11 71.4875 108.869 71.3707 108.869 71.1617V48.375Z" fill="#237FC0" stroke="#1D263A" stroke-width="1.5"/>
<path d="M98.0299 88.8069C97.8918 88.8069 97.7799 88.695 97.7799 88.5569L97.7799 81.032C97.7799 80.894 97.8918 80.782 98.0299 80.782L116.822 80.782C116.96 80.782 117.072 80.894 117.072 81.032L117.072 88.5569C117.072 88.695 116.96 88.8069 116.822 88.8069L98.0299 88.8069Z" fill="#237FC0" stroke="#1D263A" stroke-width="1.5"/>
<path d="M123.367 81.3933H133.07" stroke="#1D263A" stroke-width="1.5" stroke-linecap="round"/>
<path d="M123.367 86.8357H128.91" stroke="#1D263A" stroke-width="1.5" stroke-linecap="round"/>
<rect x="14.6373" y="0.75" width="47.0148" height="46.9988" rx="2.25" fill="#C9DFEF" stroke="#1D263A" stroke-width="1.5"/>
<path d="M31.2709 1C31.2709 0.861929 31.3828 0.75 31.5209 0.75H44.7684C44.9064 0.75 45.0184 0.861929 45.0184 1V24.2379C45.0184 24.4479 44.7751 24.5643 44.6115 24.4325L39.2426 20.1063C38.6017 19.5899 37.6875 19.5899 37.0466 20.1063L31.6777 24.4325L32.1483 25.0165L31.6777 24.4325C31.5142 24.5643 31.2709 24.4479 31.2709 24.2379V1Z" fill="#237FC0" stroke="#1D263A" stroke-width="1.5"/>
<path d="M20.4321 42.2063C20.2941 42.2063 20.1821 42.0944 20.1821 41.9563L20.1821 34.2565C20.1821 34.1185 20.2941 34.0065 20.4321 34.0065L39.2242 34.0065C39.3622 34.0065 39.4742 34.1185 39.4742 34.2565L39.4742 41.9563C39.4742 42.0944 39.3622 42.2063 39.2242 42.2063L20.4321 42.2063Z" fill="#237FC0" stroke="#1D263A" stroke-width="1.5"/>
<path d="M45.7683 34.6423H55.4713" stroke="#1D263A" stroke-width="1.5" stroke-linecap="round"/>
<path d="M45.7683 40.1846H51.3113" stroke="#1D263A" stroke-width="1.5" stroke-linecap="round"/>
<rect x="60.3799" y="0.75" width="47.0148" height="46.9988" rx="2.25" fill="#C9DFEF" stroke="#1D263A" stroke-width="1.5"/>
<path d="M77.0135 1C77.0135 0.861929 77.1255 0.75 77.2635 0.75H90.511C90.6491 0.75 90.761 0.861929 90.761 1V24.2379C90.761 24.4479 90.5177 24.5643 90.3542 24.4325L84.9853 20.1063C84.3444 19.5899 83.4302 19.5899 82.7893 20.1063L77.4204 24.4325L77.891 25.0165L77.4204 24.4325C77.2569 24.5643 77.0135 24.4479 77.0135 24.2379V1Z" fill="#237FC0" stroke="#1D263A" stroke-width="1.5"/>
<path d="M66.1743 42.2063C66.0362 42.2063 65.9243 42.0944 65.9243 41.9563L65.9243 34.2565C65.9243 34.1185 66.0362 34.0065 66.1743 34.0065L84.9664 34.0065C85.1044 34.0065 85.2164 34.1185 85.2164 34.2565L85.2164 41.9563C85.2164 42.0944 85.1044 42.2063 84.9664 42.2063L66.1743 42.2063Z" fill="#237FC0" stroke="#1D263A" stroke-width="1.5"/>
<path d="M91.5111 34.6423H101.214" stroke="#1D263A" stroke-width="1.5" stroke-linecap="round"/>
<path d="M91.5111 40.1846H97.0541" stroke="#1D263A" stroke-width="1.5" stroke-linecap="round"/>
<path fill-rule="evenodd" clip-rule="evenodd" d="M110.48 1.94982C110.573 1.94274 110.669 1.96369 110.754 2.0159L133.209 15.7308C133.573 15.9527 133.824 16.3296 133.864 16.7737C134.724 26.3104 131.3 46.6841 110.693 55.3986C110.624 55.4281 110.551 55.439 110.48 55.4336C110.41 55.439 110.337 55.4281 110.267 55.3986C89.6609 46.6841 86.2371 26.3104 87.0968 16.7737C87.1369 16.3296 87.3881 15.9527 87.7514 15.7308L110.207 2.0159C110.292 1.96369 110.388 1.94274 110.48 1.94982Z" fill="#237FC0" stroke="#1D263A" stroke-width="1.5" stroke-linecap="round"/>
<path fill-rule="evenodd" clip-rule="evenodd" d="M110.515 6.60022C110.591 6.59438 110.67 6.61168 110.741 6.65481L129.261 17.9845C129.56 18.1678 129.768 18.4791 129.801 18.846C130.51 26.7241 127.686 43.5545 110.691 50.7534C110.633 50.7777 110.573 50.7868 110.515 50.7823C110.457 50.7868 110.397 50.7777 110.339 50.7534C93.3441 43.5545 90.5203 26.7241 91.2293 18.846C91.2624 18.4791 91.4696 18.1678 91.7693 17.9845L110.289 6.65481C110.36 6.61168 110.439 6.59438 110.515 6.60022Z" fill="#C9DFEF" stroke="#1D263A" stroke-width="1.5" stroke-linecap="round"/>
<path d="M108.088 37.4753L108.06 37.4742L108.031 37.4753C107.697 37.4882 107.363 37.3681 107.11 37.116L99.1645 29.1917C98.6839 28.7124 98.6839 27.9362 99.1645 27.457C99.6462 26.9766 100.428 26.9766 100.91 27.457L107.53 34.0594L108.059 34.5876L108.589 34.0594L123.351 19.3373C123.832 18.857 124.614 18.857 125.096 19.3373C125.576 19.8166 125.576 20.5928 125.096 21.0721L109.009 37.116C108.756 37.368 108.422 37.4881 108.088 37.4753Z" fill="#237FC0" stroke="#1D263A" stroke-width="1.5"/>
</svg>
