<svg width="140" height="95" viewBox="0 0 140 95" fill="none" xmlns="http://www.w3.org/2000/svg">
<mask id="path-1-inside-1_17_1182" fill="white">
<path d="M32.2762 26.1978L31.7771 28.5414L30.2576 28.6915L29.4033 30.9526L28.3426 31.0574L26.6276 30.3739L26.1459 32.5981L27.984 33.3578L27.6983 35.2097L27.0374 35.8633L27.2884 38.4858L28.9223 39.5304L28.4518 41.8712L25.3396 41.708L24.6289 42.7489L21.9054 43.018L20.9409 41.4073L19.4513 42.1722L20.4972 45.5397L19.3104 46.7453L20.0567 48.4953L21.9489 48.3083L22.2334 51.2805L24.584 52.2542L24.8456 57.4053L26.566 59.3532L27.2153 57.6713L26.424 56.6611L26.6174 55.0536L27.6109 55.4555L28.9576 52.2928L32.0726 52.485L32.997 49.7464L31.4558 47.2514L34.1035 45.2837L35.371 46.1292L35.5189 47.6735L36.1676 48.4036L36.7647 45.8738L38.7826 45.7921L39.6939 48.0552L41.4714 47.8796L41.8089 51.4054L45.133 51.6652L46.3304 52.9882L46.4671 54.416L48.2334 54.1239L47.9935 51.6179L49.9047 50.7231L49.768 49.2953L52.4852 49.2622L54.5364 50.7362L58.2471 51.1049L58.4647 53.3777L60.3282 53.1936L62.0008 55.8521L64.3516 55.6198L64.745 59.7284L65.8058 59.6236L66.001 61.6633L68.637 61.9912L70.8615 64.0657L71.0568 66.1054L73.6004 66.6777L75.2345 66.5163L75.6887 64.9124L77.0712 64.5405L77.0014 63.812L79.5032 63.9473L80.8823 65.9582L84.0359 65.6467L84.8676 64.3585L85.9761 63.543L85.8031 61.7364L87.1632 61.1314L90.8591 64.9725L93.3247 64.7289L94.0242 63.5714L95.3254 63.5605L96.873 65.8196L99.1951 65.5902L101.83 61.9766L103.257 62.0709L104.536 63.0329L106.761 62.6954L107.036 59.5209L108.27 58.8107L108.333 54.3334L112.444 54.0449L113.202 55.9114L114.514 56.0171L115.241 58.4748L119.833 58.3741L120.586 59.8881L122.22 59.7267L123.951 56.6436L125.011 56.5388L125.514 61.7838L123.369 64.1724L123.668 67.2902L124.75 68.6246L126.155 68.4858L125.893 65.7467L128.23 65.3687L129.971 60.2845L129.079 50.96L126.066 47.9045L125.526 45.8987L124.488 45.0306L122.407 45.354L121.827 46.8526L121.793 48.915L120.365 48.8206L118.681 47.5458L118.29 43.4664L119.909 41.6298L119.728 37.3238L122.021 34.0675L123.691 34.2849L126.006 31.2618L127.17 31.0291L127.011 29.3681L125.389 27.2341L125.412 26.2612L127.943 23.9815L127.747 21.9418L125.844 20.8062L126.561 19.5293L129.049 20.7249L130.327 22.8929L130.59 25.6319L129.85 27.8817L131.139 31.3723L135.559 35.5242L139.508 37.1637L140 36.2621L138.104 33.6845L138.026 29.2505L135.602 25.9898L132.157 24.7712L131.721 22.6375L132.513 21.2357L131.873 19.3869L134.017 16.9984L132.476 13.2974L133.331 11.0363L132.57 9.43484L129.989 9.68978L129.043 10.9893L128.126 9.8739L129.221 7.70671L128.574 6.09395L130.892 4.30599L131.723 4.22384L131.62 1.93968L129.802 1.384L129.425 -0.137695L126.745 1.80365L127.044 3.71548L124.235 3.99307L119.255 10.015L121.266 11.3753L120.079 12.5809L118.434 11.4198L115.912 14.6987L116.519 16.1977L115.469 16.4191L113.665 14.803L111.691 15.351L111.439 17.5526L108.372 17.8557L107.809 19.2349L105.48 19.7003L105.583 21.9844L104.19 22.2398L104.086 23.5737L102.767 23.704L102.642 22.3928L101.506 22.6226L101.351 24.9323L99.418 23.1819L99.0408 21.6602L97.0563 22.0916L97.2042 23.636L93.9296 24.1948L93.5858 23.0228L92.5251 23.1276L92.4464 24.7237L89.0459 25.1774L91.2132 20.6099L91.0654 19.0655L89.2131 19.3662L88.5507 17.2844L86.2336 16.6603L86.6552 19.8543L84.4553 20.454L84.4187 21.2812L83.2321 21.2808L83.003 20.0974L82.0458 20.0744L81.9532 21.5248L80.8924 21.6296L80.4591 20.7312L79.7535 20.9186L79.1615 25.9187L78.1393 25.5196L77.9803 23.8587L75.9161 24.0627L75.7897 26.3695L75.5982 26.1825L74.5374 26.2873L74.1941 26.0271L73.1289 24.5734L72.1605 24.4337L72.0564 26.9737L70.8695 28.1793L71.3353 27.6038L70.4991 27.3334L70.6293 26.8793L70.5822 25.178L71.3403 24.6324L71.3294 23.3099L69.133 23.6445L66.3494 29.3318L65.7251 29.1582L65.1858 27.1525L63.5184 25.7582L62.1134 27.1031L60.462 26.1779L60.3365 24.8666L59.1339 24.3972L58.1764 25.5801L57.1271 24.5954L57.035 23.6339L55.7338 23.6448L55.3496 24.7711L53.8639 24.0648L54.1926 21.1497L53.006 21.1493L52.174 23.6435L50.7218 23.2869L50.3781 22.1149L47.4503 22.6689L47.3471 21.5908L46.1828 21.8235L45.5868 22.853L44.6633 21.9736L47.6394 18.2969L47.8468 16.8351L48.667 16.6364L48.8592 19.853L50.0483 21.0886L51.5426 20.6762L52.6514 18.6547L52.3303 16.5098L53.0521 15.5854L52.8119 14.2855L49.7063 12.6804L48.3685 13.5185L48.2535 14.7359L44.6935 15.9407L41.8878 20.1888L38.8489 20.4891L38.2472 19.3425L36.6242 19.6206L37.0154 21.2879L35.1857 20.6157L32.2662 21.2571L31.7288 22.8986L30.3687 23.5036L30.0766 25.5915L32.2762 26.1978Z"/>
</mask>
<path d="M32.2762 26.1978L31.7771 28.5414L30.2576 28.6915L29.4033 30.9526L28.3426 31.0574L26.6276 30.3739L26.1459 32.5981L27.984 33.3578L27.6983 35.2097L27.0374 35.8633L27.2884 38.4858L28.9223 39.5304L28.4518 41.8712L25.3396 41.708L24.6289 42.7489L21.9054 43.018L20.9409 41.4073L19.4513 42.1722L20.4972 45.5397L19.3104 46.7453L20.0567 48.4953L21.9489 48.3083L22.2334 51.2805L24.584 52.2542L24.8456 57.4053L26.566 59.3532L27.2153 57.6713L26.424 56.6611L26.6174 55.0536L27.6109 55.4555L28.9576 52.2928L32.0726 52.485L32.997 49.7464L31.4558 47.2514L34.1035 45.2837L35.371 46.1292L35.5189 47.6735L36.1676 48.4036L36.7647 45.8738L38.7826 45.7921L39.6939 48.0552L41.4714 47.8796L41.8089 51.4054L45.133 51.6652L46.3304 52.9882L46.4671 54.416L48.2334 54.1239L47.9935 51.6179L49.9047 50.7231L49.768 49.2953L52.4852 49.2622L54.5364 50.7362L58.2471 51.1049L58.4647 53.3777L60.3282 53.1936L62.0008 55.8521L64.3516 55.6198L64.745 59.7284L65.8058 59.6236L66.001 61.6633L68.637 61.9912L70.8615 64.0657L71.0568 66.1054L73.6004 66.6777L75.2345 66.5163L75.6887 64.9124L77.0712 64.5405L77.0014 63.812L79.5032 63.9473L80.8823 65.9582L84.0359 65.6467L84.8676 64.3585L85.9761 63.543L85.8031 61.7364L87.1632 61.1314L90.8591 64.9725L93.3247 64.7289L94.0242 63.5714L95.3254 63.5605L96.873 65.8196L99.1951 65.5902L101.83 61.9766L103.257 62.0709L104.536 63.0329L106.761 62.6954L107.036 59.5209L108.27 58.8107L108.333 54.3334L112.444 54.0449L113.202 55.9114L114.514 56.0171L115.241 58.4748L119.833 58.3741L120.586 59.8881L122.22 59.7267L123.951 56.6436L125.011 56.5388L125.514 61.7838L123.369 64.1724L123.668 67.2902L124.75 68.6246L126.155 68.4858L125.893 65.7467L128.23 65.3687L129.971 60.2845L129.079 50.96L126.066 47.9045L125.526 45.8987L124.488 45.0306L122.407 45.354L121.827 46.8526L121.793 48.915L120.365 48.8206L118.681 47.5458L118.29 43.4664L119.909 41.6298L119.728 37.3238L122.021 34.0675L123.691 34.2849L126.006 31.2618L127.17 31.0291L127.011 29.3681L125.389 27.2341L125.412 26.2612L127.943 23.9815L127.747 21.9418L125.844 20.8062L126.561 19.5293L129.049 20.7249L130.327 22.8929L130.59 25.6319L129.85 27.8817L131.139 31.3723L135.559 35.5242L139.508 37.1637L140 36.2621L138.104 33.6845L138.026 29.2505L135.602 25.9898L132.157 24.7712L131.721 22.6375L132.513 21.2357L131.873 19.3869L134.017 16.9984L132.476 13.2974L133.331 11.0363L132.57 9.43484L129.989 9.68978L129.043 10.9893L128.126 9.8739L129.221 7.70671L128.574 6.09395L130.892 4.30599L131.723 4.22384L131.62 1.93968L129.802 1.384L129.425 -0.137695L126.745 1.80365L127.044 3.71548L124.235 3.99307L119.255 10.015L121.266 11.3753L120.079 12.5809L118.434 11.4198L115.912 14.6987L116.519 16.1977L115.469 16.4191L113.665 14.803L111.691 15.351L111.439 17.5526L108.372 17.8557L107.809 19.2349L105.48 19.7003L105.583 21.9844L104.19 22.2398L104.086 23.5737L102.767 23.704L102.642 22.3928L101.506 22.6226L101.351 24.9323L99.418 23.1819L99.0408 21.6602L97.0563 22.0916L97.2042 23.636L93.9296 24.1948L93.5858 23.0228L92.5251 23.1276L92.4464 24.7237L89.0459 25.1774L91.2132 20.6099L91.0654 19.0655L89.2131 19.3662L88.5507 17.2844L86.2336 16.6603L86.6552 19.8543L84.4553 20.454L84.4187 21.2812L83.2321 21.2808L83.003 20.0974L82.0458 20.0744L81.9532 21.5248L80.8924 21.6296L80.4591 20.7312L79.7535 20.9186L79.1615 25.9187L78.1393 25.5196L77.9803 23.8587L75.9161 24.0627L75.7897 26.3695L75.5982 26.1825L74.5374 26.2873L74.1941 26.0271L73.1289 24.5734L72.1605 24.4337L72.0564 26.9737L70.8695 28.1793L71.3353 27.6038L70.4991 27.3334L70.6293 26.8793L70.5822 25.178L71.3403 24.6324L71.3294 23.3099L69.133 23.6445L66.3494 29.3318L65.7251 29.1582L65.1858 27.1525L63.5184 25.7582L62.1134 27.1031L60.462 26.1779L60.3365 24.8666L59.1339 24.3972L58.1764 25.5801L57.1271 24.5954L57.035 23.6339L55.7338 23.6448L55.3496 24.7711L53.8639 24.0648L54.1926 21.1497L53.006 21.1493L52.174 23.6435L50.7218 23.2869L50.3781 22.1149L47.4503 22.6689L47.3471 21.5908L46.1828 21.8235L45.5868 22.853L44.6633 21.9736L47.6394 18.2969L47.8468 16.8351L48.667 16.6364L48.8592 19.853L50.0483 21.0886L51.5426 20.6762L52.6514 18.6547L52.3303 16.5098L53.0521 15.5854L52.8119 14.2855L49.7063 12.6804L48.3685 13.5185L48.2535 14.7359L44.6935 15.9407L41.8878 20.1888L38.8489 20.4891L38.2472 19.3425L36.6242 19.6206L37.0154 21.2879L35.1857 20.6157L32.2662 21.2571L31.7288 22.8986L30.3687 23.5036L30.0766 25.5915L32.2762 26.1978Z" fill="#237FC0" stroke="#1D263A" stroke-width="3" stroke-linejoin="round" mask="url(#path-1-inside-1_17_1182)"/>
<path d="M4.5386 76.4949H49.9225V86.9434H8.7886C6.44139 86.9434 4.5386 85.0406 4.5386 82.6934V76.4949Z" fill="#C9DFEF" stroke="#1D263A" stroke-width="1.5"/>
<rect x="0.75" y="36.8259" width="55.3289" height="39.125" rx="4.25" fill="#C9DFEF" stroke="#1D263A" stroke-width="1.5"/>
<path d="M73.7572 86.9343H49.958V48.9536H67.1532C69.7508 48.9536 72.0919 50.5499 73.06 52.9923L78.5868 66.9367C78.8879 67.6966 79.0427 68.5076 79.0427 69.3263V83.6312C79.0427 84.5657 78.917 85.1947 78.7201 85.6249C78.5337 86.0322 78.2705 86.2915 77.908 86.4759C77.522 86.6723 76.9991 86.7951 76.2875 86.8617C75.5782 86.9282 74.745 86.9343 73.7572 86.9343Z" fill="#C9DFEF" stroke="#1D263A" stroke-width="1.5"/>
<path d="M78.5868 66.9367C78.7575 67.3676 78.8812 67.8149 78.9564 68.2707H65.9229C62.4154 68.2707 59.5602 65.3991 59.5602 61.8424V48.9536H67.1532C69.7508 48.9536 72.0919 50.5499 73.06 52.9923L78.5868 66.9367Z" fill="#237FC0" stroke="#1D263A" stroke-width="1.5"/>
<path d="M68.3736 86.9662C68.3736 90.9194 65.2 94.1123 61.2996 94.1123C57.3993 94.1123 54.2256 90.9194 54.2256 86.9662C54.2256 83.013 57.3993 79.8201 61.2996 79.8201C65.2 79.8201 68.3736 83.013 68.3736 86.9662Z" fill="#237FC0" stroke="#1D263A" stroke-width="1.5"/>
<path d="M64.8173 86.9662C64.8173 88.9371 63.236 90.5231 61.2997 90.5231C59.3634 90.5231 57.7821 88.9371 57.7821 86.9662C57.7821 84.9952 59.3634 83.4092 61.2997 83.4092C63.236 83.4092 64.8173 84.9952 64.8173 86.9662Z" fill="#C9DFEF" stroke="#1D263A" stroke-width="1.5"/>
<path d="M27.6845 86.966C27.6845 90.9192 24.5109 94.1121 20.6105 94.1121C16.7101 94.1121 13.5365 90.9192 13.5365 86.966C13.5365 83.0128 16.7101 79.8198 20.6105 79.8198C24.5109 79.8198 27.6845 83.0128 27.6845 86.966Z" fill="#237FC0" stroke="#1D263A" stroke-width="1.5"/>
<path d="M24.1281 86.9662C24.1281 88.9371 22.5468 90.5231 20.6105 90.5231C18.6742 90.5231 17.0929 88.9371 17.0929 86.9662C17.0929 84.9952 18.6742 83.4092 20.6105 83.4092C22.5468 83.4092 24.1281 84.9952 24.1281 86.9662Z" fill="#C9DFEF" stroke="#1D263A" stroke-width="1.5"/>
</svg>
