<svg width="140" height="95" viewBox="0 0 140 95" fill="none" xmlns="http://www.w3.org/2000/svg">
<rect x="0.750061" y="80.0967" width="92.9061" height="14.1534" rx="2.25" fill="#C9DFEF" stroke="#1D263A" stroke-width="1.5"/>
<rect x="40.9799" y="80.0967" width="12.4464" height="14.1534" fill="#237FC0" stroke="#1D263A" stroke-width="1.5"/>
<rect x="9.33243" y="64.9829" width="92.9061" height="14.1534" rx="2.25" fill="#C9DFEF" stroke="#1D263A" stroke-width="1.5"/>
<rect x="49.5623" y="64.9829" width="12.4464" height="14.1534" fill="#237FC0" stroke="#1D263A" stroke-width="1.5"/>
<rect x="0.750061" y="50.4092" width="92.9061" height="14.1534" rx="2.25" fill="#C9DFEF" stroke="#1D263A" stroke-width="1.5"/>
<rect x="40.9799" y="50.4092" width="12.4464" height="14.1534" fill="#237FC0" stroke="#1D263A" stroke-width="1.5"/>
<path d="M43.7711 22.4657C43.7711 34.4655 34.1341 44.1814 22.2606 44.1814C10.3871 44.1814 0.750061 34.4655 0.750061 22.4657C0.750061 10.466 10.3871 0.75 22.2606 0.75C34.1341 0.75 43.7711 10.466 43.7711 22.4657Z" fill="#237FC0" stroke="#1D263A" stroke-width="1.5"/>
<path d="M19.2661 32.3862V14.5737H23.8069C25.9162 14.5737 27.4781 15.0145 28.4926 15.8959C29.5231 16.7774 30.0384 18.0581 30.0384 19.7379C30.0384 20.8688 29.7888 21.8418 29.2896 22.6567C28.7905 23.455 28.0498 24.0704 27.0675 24.5028C26.1014 24.9352 24.9018 25.1515 23.4687 25.1515H21.4399V32.3862H19.2661ZM17.1648 28.9934V27.3718H25.4251V28.9934H17.1648ZM17.1648 25.1515V23.2554H22.6958V25.1515H17.1648ZM23.1547 23.2554C24.137 23.2554 24.9662 23.1473 25.6425 22.9311C26.3349 22.7149 26.8663 22.3573 27.2366 21.8584C27.607 21.3594 27.7921 20.6775 27.7921 19.8127C27.7921 18.6817 27.454 17.8418 26.7777 17.293C26.1014 16.7442 25.0467 16.4697 23.6137 16.4697H21.4399V23.2554H23.1547Z" fill="#1D263A"/>
<rect x="51.4871" y="0.75" width="22.4486" height="21.1387" rx="2.25" fill="#237FC0" stroke="#1D263A" stroke-width="1.5"/>
<rect x="82.6928" y="0.75" width="22.4486" height="32.8232" rx="2.25" fill="#237FC0" stroke="#1D263A" stroke-width="1.5"/>
<path d="M113.874 37.264H114.624V36.514V2.19084C114.624 1.39065 115.268 0.75 116.051 0.75H134.92C135.704 0.75 136.347 1.39065 136.347 2.19084V36.514V37.264H137.097H138.41C138.839 37.264 139.102 37.4964 139.202 37.7419C139.298 37.9768 139.263 38.2538 138.983 38.4761L126.059 48.7168C125.735 48.9732 125.236 48.9732 124.913 48.7168L111.989 38.4761C111.708 38.2538 111.673 37.9768 111.769 37.7419C111.869 37.4964 112.132 37.264 112.562 37.264H113.874Z" fill="#237FC0" stroke="#1D263A" stroke-width="1.5"/>
</svg>
