<svg width="100" height="100" viewBox="0 0 100 100" fill="none" xmlns="http://www.w3.org/2000/svg">
<g clip-path="url(#clip0_15_276)">
<rect x="0.75" y="24.8582" width="58.2959" height="70.6202" rx="4.25" fill="#C9DFEF" stroke="#1D263A" stroke-width="1.5"/>
<path d="M10 68.3875H55.1892" stroke="#1D263A" stroke-width="1.5" stroke-linecap="round"/>
<path d="M10 75H55.1892" stroke="#1D263A" stroke-width="1.5" stroke-linecap="round"/>
<path d="M10 82H55.1892" stroke="#1D263A" stroke-width="1.5" stroke-linecap="round"/>
<path d="M10 61.5406H55.1892" stroke="#1D263A" stroke-width="1.5" stroke-linecap="round"/>
<path d="M10 54.6937H55.1892" stroke="#1D263A" stroke-width="1.5" stroke-linecap="round"/>
<path d="M10 47.8469H55.1892" stroke="#1D263A" stroke-width="1.5" stroke-linecap="round"/>
<path d="M10 41H29.6277" stroke="#1D263A" stroke-width="1.5" stroke-linecap="round"/>
<rect x="37.75" y="20.75" width="61.2138" height="78.8364" rx="4.25" fill="#C9DFEF" stroke="#1D263A" stroke-width="1.5"/>
<path d="M45.6727 43.7357H90.862" stroke="#1D263A" stroke-width="1.5" stroke-linecap="round"/>
<path d="M45.6727 50.5825H90.862" stroke="#1D263A" stroke-width="1.5" stroke-linecap="round"/>
<path d="M45.6727 57.4294H90.862" stroke="#1D263A" stroke-width="1.5" stroke-linecap="round"/>
<path d="M45.6727 64.2762H90.862" stroke="#1D263A" stroke-width="1.5" stroke-linecap="round"/>
<path d="M45.6727 71.1232H65.3004" stroke="#1D263A" stroke-width="1.5" stroke-linecap="round"/>
<rect x="51.9001" y="29.8792" width="32.7343" height="6.25977" rx="3.12988" fill="#237FC0" stroke="#1D263A" stroke-width="1.5"/>
<path d="M65.3003 92.1203L68.8396 82.2607C69.598 79.7806 71.4688 79.3924 71.8733 82.2607C72.2778 85.1289 72.716 87.4893 72.8845 88.3109C73.1373 89.1326 73.9969 90.2829 75.4126 88.3109C76.8283 86.339 77.435 84.9497 78.6991 84.9497C79.9631 84.9497 80.9238 86.4735 81.7327 88.9832" stroke="#1D263A" stroke-width="1.5" stroke-linecap="round"/>
<circle cx="53.4325" cy="84.3604" r="7.00977" fill="#237FC0" stroke="#1D263A" stroke-width="1.5"/>
<path d="M50.2373 83.904L52.5196 86.1863L57.0842 81.6217" stroke="#1D263A" stroke-width="1.5" stroke-linecap="round"/>
<path d="M96.8287 4.55714C97.1816 4.56026 97.4696 4.85082 97.4696 5.20375L97.4696 7.8258C97.4696 8.17356 97.1897 8.45105 96.8419 8.44798L56.0948 8.08846L56.0948 4.19775L96.8287 4.55714Z" fill="#C9DFEF" stroke="#1D263A" stroke-width="1.5" stroke-linejoin="round"/>
<path d="M48.2764 4.12876L48.2764 7.5703L42.4708 7.51908C41.5204 7.51069 40.7501 6.73348 40.7501 5.78313C40.7501 4.83277 41.5204 4.06915 42.4708 4.07754L48.2764 4.12876Z" fill="#237FC0" stroke="#1D263A" stroke-width="1.5" stroke-linejoin="round"/>
<path d="M44.8118 3.82643L50.5329 3.32581L50.5329 8.83531L44.8118 8.05004L44.8118 3.82643Z" fill="#C9DFEF" stroke="#1D263A" stroke-width="1.5" stroke-linejoin="round"/>
<path d="M91.8642 3.61488C92.2171 3.618 92.5052 3.90856 92.5052 4.26149L92.5052 8.68046C92.5052 9.02823 92.2252 9.30571 91.8775 9.30264L51.1303 8.94313L51.1303 3.25549L91.8642 3.61488Z" fill="#C9DFEF" stroke="#1D263A" stroke-width="1.5" stroke-linejoin="round"/>
<path d="M89.1932 1.49365L89.1932 10.8908C89.1932 11.6554 88.5735 12.2697 87.8089 12.263L72.0433 12.1239" stroke="#1D263A" stroke-width="1.5" stroke-linecap="round" stroke-linejoin="round"/>
</g>
<defs>
<clipPath id="clip0_15_276">
<rect width="100" height="100" fill="white"/>
</clipPath>
</defs>
</svg>
