<svg width="100" height="101" viewBox="0 0 100 101" fill="none" xmlns="http://www.w3.org/2000/svg">
<path d="M25.9465 16.1655H38.548L66.25 41.6721V52.6215H25.9465V16.1655Z" fill="#C9DFEF" stroke="#1D263A" stroke-width="1.5" stroke-linecap="round"/>
<path d="M38.1902 41.6105V42.3605H38.9402H66.25V97.7426C66.25 98.7569 65.3533 99.6655 64.1368 99.6655H2.86325C1.64672 99.6655 0.75 98.7569 0.75 97.7426V18.0885C0.75 17.0742 1.64672 16.1655 2.86325 16.1655H38.1902V41.6105Z" fill="#C9DFEF" stroke="#1D263A" stroke-width="1.5"/>
<path d="M11.453 28.7804H32.0684" stroke="#1D263A" stroke-width="1.5" stroke-linecap="round"/>
<path d="M11.453 36.7992H32.0684" stroke="#1D263A" stroke-width="1.5" stroke-linecap="round"/>
<path d="M11.453 51.2332H55.547" stroke="#1D263A" stroke-width="1.5" stroke-linecap="round"/>
<path d="M11.453 67.271H55.547" stroke="#1D263A" stroke-width="1.5" stroke-linecap="round"/>
<path d="M11.453 83.3087H55.547" stroke="#1D263A" stroke-width="1.5" stroke-linecap="round"/>
<path d="M11.453 59.2522H55.547" stroke="#1D263A" stroke-width="1.5" stroke-linecap="round"/>
<path d="M11.453 75.2898H55.547" stroke="#1D263A" stroke-width="1.5" stroke-linecap="round"/>
<path d="M11.453 91.3275H30.9231" stroke="#1D263A" stroke-width="1.5" stroke-linecap="round"/>
<rect x="61.75" y="0.75" width="37.0057" height="50.7578" rx="4.25" fill="#C9DFEF" stroke="#1D263A" stroke-width="1.5"/>
<rect x="65.8756" y="4.87561" width="28.7545" height="8.81404" rx="4.25" fill="#237FC0" stroke="#1D263A" stroke-width="1.5"/>
<rect x="65.8756" y="18.6277" width="6.75123" height="6.75123" rx="2.25" fill="#237FC0" stroke="#1D263A" stroke-width="1.5"/>
<rect x="65.8756" y="29.6294" width="6.75123" height="6.75123" rx="2.25" fill="#237FC0" stroke="#1D263A" stroke-width="1.5"/>
<rect x="65.8756" y="40.631" width="6.75123" height="6.75123" rx="2.25" fill="#237FC0" stroke="#1D263A" stroke-width="1.5"/>
<rect x="76.8773" y="18.6277" width="6.75123" height="6.75123" rx="2.25" fill="#237FC0" stroke="#1D263A" stroke-width="1.5"/>
<rect x="76.8773" y="29.6294" width="6.75123" height="6.75123" rx="2.25" fill="#237FC0" stroke="#1D263A" stroke-width="1.5"/>
<rect x="76.8773" y="40.631" width="6.75123" height="6.75123" rx="2.25" fill="#237FC0" stroke="#1D263A" stroke-width="1.5"/>
<rect x="87.8789" y="18.6277" width="6.75123" height="6.75123" rx="2.25" fill="#237FC0" stroke="#1D263A" stroke-width="1.5"/>
<rect x="87.8789" y="29.6294" width="6.75123" height="6.75123" rx="2.25" fill="#237FC0" stroke="#1D263A" stroke-width="1.5"/>
<rect x="87.8789" y="40.631" width="6.75123" height="6.75123" rx="2.25" fill="#237FC0" stroke="#1D263A" stroke-width="1.5"/>
</svg>
