<svg width="101" height="101" viewBox="0 0 101 101" fill="none" xmlns="http://www.w3.org/2000/svg">
<path d="M33.3978 53.2873C33.3978 56.5676 32.5032 62.2334 29.8195 63.1281C29.6116 63.1973 29.3506 63.2841 29.0443 63.3858C26.015 64.3924 18.5561 66.8708 14.3133 68.4957C10.5362 70.4838 2.98195 78.5154 2.98195 94.7377H80.5126C80.5126 78.5154 72.9583 70.4838 69.1812 68.4957C64.9384 66.8708 57.4794 64.3924 54.4501 63.3858C54.1439 63.284 53.8829 63.1973 53.675 63.1281C50.9913 62.2334 50.0967 56.5676 50.0967 53.2873V52.0945H33.3978V53.2873Z" fill="#C9DFEF" stroke="#1D263A" stroke-width="1.5"/>
<rect x="25.2081" y="12.2886" width="33.0906" height="43.8271" rx="16.5453" fill="#C9DFEF" stroke="#1D263A" stroke-width="1.5"/>
<path d="M17.4489 33.0094C17.4489 30.1297 19.7834 27.7953 22.663 27.7953H24.8948V38.2235H22.663C19.7834 38.2235 17.4489 35.889 17.4489 33.0094Z" fill="#237FC0" stroke="#1D263A" stroke-width="1.5"/>
<path d="M47.1148 48.2178L53.6748 48.2178C57.9569 48.2178 61.4281 44.7465 61.4281 40.4645V40.4645L61.4281 36.5878" stroke="#1D263A" stroke-width="1.5"/>
<rect x="-0.75" y="-0.75" width="4.46409" height="8.63862" rx="2.23205" transform="matrix(1.19245e-08 -1 -1 -1.19253e-08 51.5787 49.7)" fill="#237FC0" stroke="#1D263A" stroke-width="1.5"/>
<path d="M66.0457 33.0094C66.0457 30.1297 63.7112 27.7953 60.8316 27.7953H58.5998V38.2235H60.8316C63.7112 38.2235 66.0457 35.889 66.0457 33.0094Z" fill="#237FC0" stroke="#1D263A" stroke-width="1.5"/>
<path d="M22.8222 22.8925L22.8226 22.8814V22.8704V18.3973C22.8226 16.6524 22.8404 13.7924 24.2563 11.365C25.6249 9.0187 28.4024 6.9209 34.2985 6.9209H50.4011C53.4453 6.9209 55.9131 9.38884 55.9131 12.4332V13.0528V13.6457L56.4901 13.7825C58.3822 14.2312 59.8334 15.2072 60.8366 16.9508C61.8604 18.7302 62.4531 21.3712 62.4531 25.2024V31.4379V31.4698L62.4558 31.5016C62.4999 32.0188 62.4717 32.8438 62.2511 33.591C62.0268 34.3511 61.6555 34.8733 61.1311 35.0762C59.5259 35.6974 56.9679 36.2119 55.8763 36.3911L55.808 36.4023L55.7429 36.4258C55.7008 36.441 55.6389 36.443 55.573 36.3812C55.4814 36.2951 55.2466 35.9611 55.2466 34.9624V28.5279C55.4507 27.4414 55.444 25.8288 54.6096 24.582C54.1681 23.9223 53.5087 23.3897 52.5918 23.1121C51.6889 22.8388 50.579 22.8247 49.2352 23.1136C47.6919 23.4454 46.7098 23.7255 45.969 23.9367C45.7343 24.0037 45.5239 24.0637 45.3275 24.1162C44.5429 24.3262 43.9259 24.437 42.648 24.437C41.3701 24.437 40.7531 24.3262 39.9685 24.1162C39.7721 24.0637 39.5616 24.0037 39.327 23.9367C38.5862 23.7255 37.604 23.4454 36.0608 23.1136C34.717 22.8247 33.607 22.8388 32.7042 23.1121C31.7873 23.3897 31.1279 23.9223 30.6864 24.582C29.852 25.8288 29.8452 27.4414 30.0493 28.5279V34.9624C30.0493 35.9611 29.8146 36.2951 29.723 36.3812C29.6571 36.443 29.5952 36.441 29.5531 36.4258L29.488 36.4023L29.4197 36.3911C28.3281 36.2119 25.7701 35.6974 24.1649 35.0762C23.6405 34.8732 23.2691 34.3511 23.0449 33.591C22.8243 32.8438 22.7961 32.0188 22.8402 31.5016L22.8429 31.4698V31.4379V25.2024C22.8429 24.8248 22.8354 24.4844 22.8284 24.1628C22.8187 23.7198 22.8099 23.3125 22.8222 22.8925Z" fill="#C9DFEF" stroke="#1D263A" stroke-width="1.5"/>
<path d="M8.16822 64.4636C8.04684 62.036 9.98235 60.0013 12.4129 60.0013H71.678C74.1086 60.0013 76.0441 62.036 75.9227 64.4636L74.6335 90.2481C74.5204 92.51 72.6535 94.2859 70.3888 94.2859H13.7021C11.4374 94.2859 9.57049 92.51 9.4574 90.2481L8.16822 64.4636Z" fill="#237FC0" stroke="#1D263A" stroke-width="1.5"/>
<rect x="0.75" y="92.804" width="82.5909" height="7.44614" rx="3.72307" fill="#237FC0" stroke="#1D263A" stroke-width="1.5"/>
<path d="M69.8864 1C67.6898 1 65.9091 2.7851 65.9091 4.98714V18.6573C65.9091 20.8594 67.3295 22.6445 69.8864 22.6445H72.7273V28.3404C72.7273 31.7579 75.5682 32.8971 77.8409 30.0492C79.3289 28.1845 81.5611 25.3309 83.6516 22.6445H96.0227C98.2193 22.6445 100 20.8594 100 18.6573V4.98714C100 2.7851 98.2193 1 96.0227 1H69.8864Z" fill="#237FC0" stroke="#1D263A" stroke-width="1.5" stroke-linejoin="round"/>
<path d="M72.7273 8.97437H93.1818" stroke="#1D263A" stroke-width="1.5" stroke-linecap="round"/>
<path d="M72.7273 14.1006H84.6591" stroke="#1D263A" stroke-width="1.5" stroke-linecap="round"/>
</svg>
