<svg width="100" height="100" viewBox="0 0 100 100" fill="none" xmlns="http://www.w3.org/2000/svg">
<path d="M0.75 88.5227C0.75 86.1755 2.65279 84.2727 5 84.2727H70.8409V93H5.00001C2.6528 93 0.75 91.0972 0.75 88.75V88.5227Z" fill="#C9DFEF" stroke="#1D263A" stroke-width="1.5"/>
<path d="M90.6905 93.0437H70.9598V60.4091H85.8681C88.0992 60.4091 90.1055 61.7674 90.9341 63.8389L95.7566 75.8952C96.0144 76.5397 96.1468 77.2274 96.1468 77.9216V87.5874C96.1468 90.6008 93.704 93.0437 90.6905 93.0437Z" fill="#C9DFEF" stroke="#1D263A" stroke-width="1.5"/>
<path d="M95.7566 75.8952C95.8877 76.223 95.9864 76.562 96.0517 76.9073H84.7946C81.7811 76.9073 79.3383 74.4644 79.3383 71.451V60.4091H85.868C88.0991 60.4091 90.1055 61.7674 90.9341 63.8389L95.7566 75.8952Z" fill="#237FC0" stroke="#1D263A" stroke-width="1.5"/>
<rect x="90.8199" y="86.4756" width="8.43007" height="6.56818" rx="2.25" fill="#C9DFEF" stroke="#1D263A" stroke-width="1.5"/>
<path d="M91.1233 80.1399H94.4143C95.4426 80.1399 96.2762 80.9735 96.2762 82.0018C96.2762 83.0301 95.4426 83.8637 94.4143 83.8637H91.1233C90.5097 83.8637 89.9354 83.5613 89.5882 83.0553C88.7403 81.8198 89.6249 80.1399 91.1233 80.1399Z" fill="#237FC0" stroke="#1D263A" stroke-width="1.5" stroke-linecap="round"/>
<circle cx="80.7605" cy="93.1731" r="6.07692" fill="#237FC0" stroke="#1D263A" stroke-width="1.5"/>
<circle cx="80.7605" cy="93.1731" r="2.97378" fill="#C9DFEF" stroke="#1D263A" stroke-width="1.5"/>
<circle cx="16.215" cy="93.1731" r="6.07692" fill="#237FC0" stroke="#1D263A" stroke-width="1.5"/>
<circle cx="16.215" cy="93.1731" r="2.97378" fill="#C9DFEF" stroke="#1D263A" stroke-width="1.5"/>
<circle cx="31.8269" cy="93.1731" r="6.07692" fill="#237FC0" stroke="#1D263A" stroke-width="1.5"/>
<circle cx="31.8269" cy="93.1731" r="2.97378" fill="#C9DFEF" stroke="#1D263A" stroke-width="1.5"/>
<rect x="3.02271" y="62.6284" width="21.0248" height="20.9626" rx="2.25" fill="#C9DFEF" stroke="#1D263A" stroke-width="1.5"/>
<path d="M11.1522 72.1803L11.6221 72.7648L11.1522 72.1803C10.9886 72.3118 10.7455 72.1953 10.7455 71.9854V62.8783C10.7455 62.7402 10.8575 62.6283 10.9955 62.6283H16.0748C16.2128 62.6283 16.3248 62.7402 16.3248 62.8783V71.9854C16.3248 72.1953 16.0817 72.3118 15.9181 72.1803L14.6316 71.1461C13.9912 70.6314 13.0791 70.6314 12.4387 71.1461L11.1522 72.1803Z" fill="#237FC0" stroke="#1D263A" stroke-width="1.5"/>
<path d="M5.84698 81.0238C5.70891 81.0238 5.59698 80.9119 5.59698 80.7738L5.59698 78.2813C5.59698 78.1432 5.70891 78.0313 5.84698 78.0313L13.5005 78.0313C13.6385 78.0313 13.7504 78.1432 13.7504 78.2813L13.7505 80.7738C13.7505 80.9119 13.6385 81.0238 13.5005 81.0238L5.84698 81.0238Z" fill="#237FC0" stroke="#1D263A" stroke-width="1.5"/>
<path d="M17.0748 77.923H21.5797" stroke="#1D263A" stroke-width="1.5" stroke-linecap="round"/>
<path d="M17.0748 80.4902H19.6483" stroke="#1D263A" stroke-width="1.5" stroke-linecap="round"/>
<rect x="24.2604" y="62.6284" width="21.0248" height="20.9626" rx="2.25" fill="#C9DFEF" stroke="#1D263A" stroke-width="1.5"/>
<path d="M32.3898 72.1803L32.8597 72.7648L32.3898 72.1803C32.2262 72.3118 31.9832 72.1953 31.9832 71.9854V62.8783C31.9832 62.7402 32.0951 62.6283 32.2332 62.6283H37.3124C37.4504 62.6283 37.5624 62.7402 37.5624 62.8783V71.9854C37.5624 72.1953 37.3193 72.3118 37.1557 72.1803L35.8692 71.1461C35.2288 70.6314 34.3167 70.6314 33.6764 71.1461L32.3898 72.1803Z" fill="#237FC0" stroke="#1D263A" stroke-width="1.5"/>
<path d="M27.0846 81.0238C26.9465 81.0238 26.8346 80.9119 26.8346 80.7738L26.8346 78.2813C26.8346 78.1432 26.9465 78.0313 27.0846 78.0313L34.7381 78.0313C34.8761 78.0313 34.9881 78.1432 34.9881 78.2813L34.9881 80.7738C34.9881 80.9119 34.8761 81.0238 34.7381 81.0238L27.0846 81.0238Z" fill="#237FC0" stroke="#1D263A" stroke-width="1.5"/>
<path d="M38.3124 77.923H42.8173" stroke="#1D263A" stroke-width="1.5" stroke-linecap="round"/>
<path d="M38.3124 80.4902H40.8859" stroke="#1D263A" stroke-width="1.5" stroke-linecap="round"/>
<rect x="45.498" y="62.6284" width="21.0248" height="20.9626" rx="2.25" fill="#C9DFEF" stroke="#1D263A" stroke-width="1.5"/>
<path d="M53.6274 72.1803L54.0973 72.7648L53.6274 72.1803C53.4638 72.3118 53.2208 72.1953 53.2208 71.9854V62.8783C53.2208 62.7402 53.3327 62.6283 53.4708 62.6283H58.55C58.688 62.6283 58.8 62.7402 58.8 62.8783V71.9854C58.8 72.1953 58.5569 72.3118 58.3933 72.1803L57.1068 71.1461C56.4664 70.6314 55.5543 70.6314 54.914 71.1461L53.6274 72.1803Z" fill="#237FC0" stroke="#1D263A" stroke-width="1.5"/>
<path d="M48.3223 81.0238C48.1842 81.0238 48.0723 80.9119 48.0723 80.7738L48.0723 78.2813C48.0723 78.1432 48.1842 78.0313 48.3223 78.0313L55.9757 78.0313C56.1138 78.0313 56.2257 78.1432 56.2257 78.2813L56.2257 80.7738C56.2257 80.9119 56.1138 81.0238 55.9757 81.0238L48.3223 81.0238Z" fill="#237FC0" stroke="#1D263A" stroke-width="1.5"/>
<path d="M59.5499 77.923H64.0549" stroke="#1D263A" stroke-width="1.5" stroke-linecap="round"/>
<path d="M59.5499 80.4902H62.1235" stroke="#1D263A" stroke-width="1.5" stroke-linecap="round"/>
<rect x="12.6762" y="41.0909" width="21.0248" height="20.9626" rx="2.25" fill="#C9DFEF" stroke="#1D263A" stroke-width="1.5"/>
<path d="M20.8056 50.6429L21.2754 51.2275L20.8056 50.6429C20.642 50.7744 20.3989 50.658 20.3989 50.4481V41.3409C20.3989 41.2029 20.5109 41.0909 20.6489 41.0909H25.7281C25.8662 41.0909 25.9781 41.2029 25.9781 41.3409V50.4481C25.9781 50.658 25.7351 50.7744 25.5715 50.6429L24.2849 49.6087C23.6446 49.094 22.7324 49.094 22.0921 49.6087L20.8056 50.6429Z" fill="#237FC0" stroke="#1D263A" stroke-width="1.5"/>
<path d="M15.5005 59.4863C15.3624 59.4863 15.2505 59.3744 15.2505 59.2363L15.2505 56.7438C15.2505 56.6057 15.3624 56.4938 15.5005 56.4938L23.154 56.4938C23.292 56.4938 23.404 56.6057 23.404 56.7438L23.404 59.2363C23.404 59.3744 23.292 59.4863 23.154 59.4863L15.5005 59.4863Z" fill="#237FC0" stroke="#1D263A" stroke-width="1.5"/>
<path d="M26.7281 56.3857H31.2331" stroke="#1D263A" stroke-width="1.5" stroke-linecap="round"/>
<path d="M26.7281 58.9528H29.3017" stroke="#1D263A" stroke-width="1.5" stroke-linecap="round"/>
<rect x="33.9138" y="41.0909" width="21.0248" height="20.9626" rx="2.25" fill="#C9DFEF" stroke="#1D263A" stroke-width="1.5"/>
<path d="M42.0432 50.6429L42.5131 51.2275L42.0432 50.6429C41.8796 50.7744 41.6366 50.658 41.6366 50.4481V41.3409C41.6366 41.2029 41.7485 41.0909 41.8866 41.0909H46.9658C47.1039 41.0909 47.2158 41.2029 47.2158 41.3409V50.4481C47.2158 50.658 46.9728 50.7744 46.8092 50.6429L45.5226 49.6087C44.8823 49.094 43.9701 49.094 43.3298 49.6087L42.0432 50.6429Z" fill="#237FC0" stroke="#1D263A" stroke-width="1.5"/>
<path d="M36.7381 59.4863C36.6 59.4863 36.4881 59.3744 36.4881 59.2363L36.4881 56.7438C36.4881 56.6057 36.6 56.4938 36.7381 56.4938L44.3916 56.4938C44.5296 56.4938 44.6416 56.6057 44.6416 56.7438L44.6416 59.2363C44.6416 59.3744 44.5296 59.4863 44.3916 59.4863L36.7381 59.4863Z" fill="#237FC0" stroke="#1D263A" stroke-width="1.5"/>
<path d="M47.9658 56.3857H52.4708" stroke="#1D263A" stroke-width="1.5" stroke-linecap="round"/>
<path d="M47.9658 58.9528H50.5394" stroke="#1D263A" stroke-width="1.5" stroke-linecap="round"/>
<circle cx="73.5795" cy="22.4432" r="21.6932" fill="#237FC0"/>
<circle cx="73.5795" cy="22.4432" r="21.6932" fill="#237FC0"/>
<circle cx="73.5795" cy="22.4432" r="21.6932" stroke="#1D263A" stroke-width="1.5"/>
<circle cx="73.5796" cy="22.4432" r="17.7159" fill="#C9DFEF" stroke="#1D263A" stroke-width="1.5"/>
<path d="M75.6618 25.3793L75.6618 25.3813C75.6591 25.6202 75.556 25.833 75.3909 25.9822L75.3695 26.0016L75.3496 26.0226C75.1965 26.1841 74.9813 26.2822 74.7423 26.2793L65.8248 26.17C65.3695 26.1644 65.0045 25.7906 65.0097 25.3354C65.0148 24.8807 65.3874 24.5169 65.842 24.5224L73.272 24.6135L74.0205 24.6227L74.0312 23.8743L74.2189 10.7396L74.2189 10.7374C74.224 10.2827 74.5966 9.91888 75.0513 9.92446C75.5062 9.93003 75.871 10.3033 75.8664 10.7581C75.8664 10.7584 75.8664 10.7587 75.8664 10.759L75.6618 25.3793Z" fill="#237FC0" stroke="#1D263A" stroke-width="1.5"/>
</svg>
