<svg width="102" height="100" viewBox="0 0 102 100" fill="none" xmlns="http://www.w3.org/2000/svg">
<path d="M57.0606 57.1625L59.5858 65.7062C56.3872 68.0516 50.1919 71.335 51 65.7062C52.2121 60.4795 55.5454 57.8326 57.0606 57.1625Z" fill="#C9DFEF" stroke="#1D263A" stroke-width="1.5" stroke-linecap="round"/>
<path d="M6.05051 66.2087H21.202" stroke="#1D263A" stroke-width="1.5" stroke-linecap="round"/>
<path d="M8.75 36C8.75 33.6528 10.6528 31.75 13 31.75H45.1441C46.9649 31.75 48.5835 32.9099 49.1686 34.6341L61.0474 69.6341C61.9829 72.3903 59.9335 75.25 57.0229 75.25H13C10.6528 75.25 8.75 73.3472 8.75 71V36Z" stroke="#1D263A" stroke-width="1.5"/>
<path d="M31.303 62.1779C31.303 61.0733 32.1985 60.1779 33.303 60.1779H42.4344C43.5389 60.1779 44.4344 61.0733 44.4344 62.1779V84.3117C44.4344 85.4162 43.5389 86.3117 42.4344 86.3117H33.303C32.1985 86.3117 31.303 85.4162 31.303 84.3117V62.1779Z" fill="#237FC0" stroke="#1D263A" stroke-width="1.5"/>
<path d="M31.303 52.1367L31.303 68.2191" stroke="#1D263A" stroke-width="1.5" stroke-linecap="round"/>
<path d="M47.4647 54.147L53.3371 59.9906" stroke="#1D263A" stroke-width="1.5" stroke-linecap="round"/>
<path d="M50.3068 51.1316L44.4344 56.9752" stroke="#1D263A" stroke-width="1.5" stroke-linecap="round"/>
<path d="M27.2626 53.1418H1V89.3271H63.6263V65.2036H27.2626V53.1418Z" fill="#C9DFEF" stroke="#1D263A" stroke-width="1.5"/>
<path d="M26.0622 90.643C26.0622 95.3955 22.2036 99.2501 17.4414 99.2501C12.6793 99.2501 8.82071 95.3955 8.82071 90.643C8.82071 85.8905 12.6793 82.036 17.4414 82.036C22.2036 82.036 26.0622 85.8905 26.0622 90.643Z" fill="#C9DFEF" stroke="#1D263A" stroke-width="1.5"/>
<path d="M21.8028 90.6425C21.8028 93.046 19.8512 94.9964 17.4415 94.9964C15.0318 94.9964 13.0802 93.046 13.0802 90.6425C13.0802 88.239 15.0318 86.2887 17.4415 86.2887C19.8512 86.2887 21.8028 88.239 21.8028 90.6425Z" fill="#237FC0" stroke="#1D263A" stroke-width="1.5"/>
<path d="M60.4056 90.643C60.4056 95.3955 56.547 99.2501 51.7849 99.2501C47.0228 99.2501 43.1642 95.3955 43.1642 90.643C43.1642 85.8905 47.0228 82.036 51.7849 82.036C56.547 82.036 60.4056 85.8905 60.4056 90.643Z" fill="#C9DFEF" stroke="#1D263A" stroke-width="1.5"/>
<path d="M56.1462 90.6425C56.1462 93.046 54.1946 94.9964 51.7849 94.9964C49.3752 94.9964 47.4236 93.046 47.4236 90.6425C47.4236 88.239 49.3752 86.2887 51.7849 86.2887C54.1946 86.2887 56.1462 88.239 56.1462 90.6425Z" fill="#237FC0" stroke="#1D263A" stroke-width="1.5"/>
<path d="M6.05051 58.1676H21.202" stroke="#1D263A" stroke-width="1.5" stroke-linecap="round"/>
<path d="M6.05051 62.1881H21.202" stroke="#1D263A" stroke-width="1.5" stroke-linecap="round"/>
<path d="M6.05051 66.2087H21.202" stroke="#1D263A" stroke-width="1.5" stroke-linecap="round"/>
<rect x="1" y="72.2396" width="9.09091" height="7.03603" fill="#237FC0" stroke="#1D263A" stroke-width="1.5"/>
<rect x="63.6263" y="73.2448" width="5.05051" height="11.0566" stroke="#1D263A" stroke-width="1.5"/>
<path d="M68.6768 27.0081V89.3271H101" stroke="#1D263A" stroke-width="1.5" stroke-linecap="round"/>
<rect x="71.4672" y="61.9331" width="26.7828" height="26.6441" rx="2.25" fill="#C9DFEF" stroke="#1D263A" stroke-width="1.5"/>
<path d="M81.1642 62.1829C81.1642 62.0448 81.2761 61.9329 81.4142 61.9329H88.303C88.4411 61.9329 88.553 62.0448 88.553 62.1829V74.377C88.553 74.5868 88.3103 74.7033 88.1466 74.5721L85.9536 72.813C85.3138 72.2998 84.4034 72.2998 83.7636 72.813L84.2329 73.398L83.7636 72.813L81.5706 74.5721C81.4069 74.7033 81.1642 74.5868 81.1642 74.377V62.1829Z" fill="#237FC0" stroke="#1D263A" stroke-width="1.5"/>
<path d="M74.9494 85.3606C74.8114 85.3606 74.6994 85.2487 74.6994 85.1106L74.6994 81.4818C74.6994 81.3437 74.8114 81.2318 74.9494 81.2318L85.0706 81.2318C85.2087 81.2318 85.3206 81.3437 85.3206 81.4818L85.3206 85.1106C85.3206 85.2487 85.2087 85.3606 85.0706 85.3606L74.9494 85.3606Z" fill="#237FC0" stroke="#1D263A" stroke-width="1.5"/>
<path d="M89.303 81.2859H94.9596" stroke="#1D263A" stroke-width="1.5" stroke-linecap="round"/>
<path d="M89.303 84.5023H92.5344" stroke="#1D263A" stroke-width="1.5" stroke-linecap="round"/>
<rect x="71.4672" y="31.3416" width="26.7828" height="26.6441" rx="2.25" fill="#C9DFEF" stroke="#1D263A" stroke-width="1.5"/>
<path d="M81.1642 31.5914C81.1642 31.4534 81.2761 31.3414 81.4142 31.3414H88.303C88.4411 31.3414 88.553 31.4534 88.553 31.5914V43.7856C88.553 43.9954 88.3103 44.1119 88.1466 43.9806L85.9536 42.2216C85.3138 41.7084 84.4034 41.7084 83.7636 42.2216L84.2329 42.8066L83.7636 42.2216L81.5706 43.9806C81.4069 44.1119 81.1642 43.9954 81.1642 43.7856V31.5914Z" fill="#237FC0" stroke="#1D263A" stroke-width="1.5"/>
<path d="M74.9494 54.7692C74.8114 54.7692 74.6994 54.6572 74.6994 54.5192L74.6994 50.8903C74.6994 50.7523 74.8114 50.6403 74.9494 50.6403L85.0706 50.6403C85.2087 50.6403 85.3206 50.7523 85.3206 50.8903L85.3206 54.5192C85.3206 54.6572 85.2087 54.7692 85.0706 54.7692L74.9494 54.7692Z" fill="#237FC0" stroke="#1D263A" stroke-width="1.5"/>
<path d="M89.303 50.6943H94.9596" stroke="#1D263A" stroke-width="1.5" stroke-linecap="round"/>
<path d="M89.303 53.9109H92.5344" stroke="#1D263A" stroke-width="1.5" stroke-linecap="round"/>
<rect x="71.4672" y="0.750122" width="26.7828" height="26.6441" rx="2.25" fill="#C9DFEF" stroke="#1D263A" stroke-width="1.5"/>
<path d="M81.1642 1C81.1642 0.861929 81.2761 0.75 81.4142 0.75H88.303C88.4411 0.75 88.553 0.86193 88.553 1V13.1942C88.553 13.404 88.3103 13.5205 88.1466 13.3892L85.9536 11.6301C85.3138 11.117 84.4034 11.117 83.7636 11.6301L84.2329 12.2152L83.7636 11.6301L81.5706 13.3892C81.4069 13.5204 81.1642 13.404 81.1642 13.1942V1Z" fill="#237FC0" stroke="#1D263A" stroke-width="1.5"/>
<path d="M74.9494 24.1777C74.8114 24.1777 74.6994 24.0658 74.6994 23.9277L74.6994 20.2989C74.6994 20.1608 74.8114 20.0489 74.9494 20.0489L85.0706 20.0489C85.2087 20.0489 85.3206 20.1608 85.3206 20.2989L85.3206 23.9277C85.3206 24.0658 85.2087 24.1777 85.0706 24.1777L74.9494 24.1777Z" fill="#237FC0" stroke="#1D263A" stroke-width="1.5"/>
<path d="M89.303 20.1029H94.9596" stroke="#1D263A" stroke-width="1.5" stroke-linecap="round"/>
<path d="M89.303 23.3195H92.5344" stroke="#1D263A" stroke-width="1.5" stroke-linecap="round"/>
</svg>
