<svg width="100" height="101" viewBox="0 0 100 101" fill="none" xmlns="http://www.w3.org/2000/svg">
<path d="M15.9881 38.5714C15.9881 36.2242 17.8909 34.3214 20.2381 34.3214H95C97.3472 34.3214 99.25 36.2242 99.25 38.5714V80.5877C99.25 82.9349 97.3472 84.8377 95 84.8377H20.2381C17.8909 84.8377 15.9881 82.9349 15.9881 80.5877V38.5714Z" fill="#C9DFEF" stroke="#1D263A" stroke-width="1.5"/>
<rect x="15.9882" y="44.9174" width="83.2619" height="8.13265" fill="#237FC0" stroke="#1D263A" stroke-width="1.5"/>
<path d="M0.75 53.9836C0.75 51.6364 2.65279 49.7336 5 49.7336H79.7619C82.1091 49.7336 84.0119 51.6364 84.0119 53.9836V96C84.0119 98.3472 82.1091 100.25 79.7619 100.25H5C2.65279 100.25 0.75 98.3472 0.75 96V53.9836Z" fill="#C9DFEF" stroke="#1D263A" stroke-width="1.5"/>
<path d="M6.46429 61.6897C6.46429 59.3425 8.36708 57.4397 10.7143 57.4397H35C37.3472 57.4397 39.25 59.3425 39.25 61.6897V69.9917C39.25 72.3389 37.3472 74.2417 35 74.2417H10.7143C8.36708 74.2417 6.46429 72.3389 6.46429 69.9917V61.6897Z" fill="#237FC0" stroke="#1D263A" stroke-width="1.5"/>
<path d="M6.46429 89.9225C6.46429 87.9427 8.06922 86.3378 10.049 86.3378H18.5225C20.5022 86.3378 22.1072 87.9427 22.1072 89.9225C22.1072 91.9022 20.5022 93.5072 18.5225 93.5072H10.049C8.06922 93.5072 6.46429 91.9022 6.46429 89.9225Z" fill="#237FC0" stroke="#1D263A" stroke-width="1.5"/>
<path d="M24.5595 89.9225C24.5595 87.9427 26.1644 86.3378 28.1442 86.3378H36.6177C38.5974 86.3378 40.2024 87.9427 40.2024 89.9225C40.2024 91.9022 38.5974 93.5072 36.6177 93.5072H28.1442C26.1644 93.5072 24.5595 91.9022 24.5595 89.9225Z" fill="#237FC0" stroke="#1D263A" stroke-width="1.5"/>
<path d="M42.6548 89.9225C42.6548 87.9427 44.2597 86.3378 46.2395 86.3378H54.7129C56.6927 86.3378 58.2976 87.9427 58.2976 89.9225C58.2976 91.9022 56.6927 93.5072 54.7129 93.5072H46.2395C44.2597 93.5072 42.6548 91.9022 42.6548 89.9225Z" fill="#237FC0" stroke="#1D263A" stroke-width="1.5"/>
<path d="M60.75 89.9225C60.75 87.9427 62.3549 86.3378 64.3347 86.3378H72.8082C74.7879 86.3378 76.3929 87.9427 76.3929 89.9225C76.3929 91.9022 74.7879 93.5072 72.8082 93.5072H64.3347C62.3549 93.5072 60.75 91.9022 60.75 89.9225Z" fill="#237FC0" stroke="#1D263A" stroke-width="1.5"/>
<path d="M43.6072 65.8408C43.6072 63.861 45.2121 62.2561 47.1919 62.2561H72.8082C74.788 62.2561 76.3929 63.861 76.3929 65.8408C76.3929 67.8206 74.788 69.4255 72.8082 69.4255H47.1919C45.2121 69.4255 43.6072 67.8206 43.6072 65.8408Z" fill="#237FC0" stroke="#1D263A" stroke-width="1.5"/>
<path d="M43.8096 57.6531H75.2381" stroke="#1D263A" stroke-width="1.5" stroke-linecap="round"/>
<path d="M43.8096 74.0286H75.2381" stroke="#1D263A" stroke-width="1.5" stroke-linecap="round"/>
<path fill-rule="evenodd" clip-rule="evenodd" d="M78.5 1.00105C78.5729 0.995489 78.6482 1.01194 78.7155 1.05294L96.3913 11.8225C96.6773 11.9968 96.8751 12.2927 96.9066 12.6415C97.5833 20.1301 94.8882 36.1284 78.6677 42.9715C78.6129 42.9946 78.5555 43.0032 78.5 42.999C78.4445 43.0032 78.3871 42.9946 78.3323 42.9715C62.1118 36.1284 59.4167 20.1301 60.0934 12.6415C60.1249 12.2927 60.3227 11.9968 60.6087 11.8225L78.2845 1.05294C78.3518 1.01194 78.4271 0.995489 78.5 1.00105Z" fill="#237FC0" stroke="#1D263A" stroke-width="1.5" stroke-linecap="round"/>
<path fill-rule="evenodd" clip-rule="evenodd" d="M78.5272 4.65309C78.5874 4.64849 78.6494 4.66208 78.7049 4.69595L93.2831 13.5925C93.519 13.7365 93.6821 13.981 93.7081 14.269C94.2663 20.4553 92.0435 33.6713 78.6656 39.3242C78.6203 39.3433 78.573 39.3504 78.5272 39.3469C78.4814 39.3504 78.4341 39.3433 78.3889 39.3242C65.011 33.6713 62.7882 20.4553 63.3463 14.269C63.3723 13.981 63.5354 13.7365 63.7713 13.5925L78.3495 4.69595C78.405 4.66208 78.4671 4.64849 78.5272 4.65309Z" fill="#C9DFEF" stroke="#1D263A" stroke-width="1.5" stroke-linecap="round"/>
<path d="M76.6231 28.7364L76.5944 28.7353L76.5657 28.7364C76.345 28.7449 76.1252 28.6657 75.9592 28.5005L69.7047 22.278C69.3898 21.9647 69.3898 21.4584 69.7047 21.1452C70.0217 20.8298 70.5372 20.8298 70.8542 21.1452L76.0654 26.3297L76.5943 26.8559L77.1233 26.3297L88.7432 14.7692C89.0602 14.4539 89.5757 14.4539 89.8927 14.7692C90.2076 15.0825 90.2076 15.5888 89.8927 15.9021L77.2295 28.5005C77.0635 28.6657 76.8437 28.7448 76.6231 28.7364Z" fill="#237FC0" stroke="#1D263A" stroke-width="1.5"/>
</svg>
